%TF.GenerationSoftware,KiCad,Pcbnew,9.0.2*%
%TF.CreationDate,2026-02-11T13:34:07-05:00*%
%TF.ProjectId,COMMS_circuit,434f4d4d-535f-4636-9972-637569742e6b,rev?*%
%TF.SameCoordinates,Original*%
%TF.FileFunction,Soldermask,Top*%
%TF.FilePolarity,Negative*%
%FSLAX46Y46*%
G04 Gerber Fmt 4.6, Leading zero omitted, Abs format (unit mm)*
G04 Created by KiCad (PCBNEW 9.0.2) date 2026-02-11 13:34:07*
%MOMM*%
%LPD*%
G01*
G04 APERTURE LIST*
G04 Aperture macros list*
%AMRoundRect*
0 Rectangle with rounded corners*
0 $1 Rounding radius*
0 $2 $3 $4 $5 $6 $7 $8 $9 X,Y pos of 4 corners*
0 Add a 4 corners polygon primitive as box body*
4,1,4,$2,$3,$4,$5,$6,$7,$8,$9,$2,$3,0*
0 Add four circle primitives for the rounded corners*
1,1,$1+$1,$2,$3*
1,1,$1+$1,$4,$5*
1,1,$1+$1,$6,$7*
1,1,$1+$1,$8,$9*
0 Add four rect primitives between the rounded corners*
20,1,$1+$1,$2,$3,$4,$5,0*
20,1,$1+$1,$4,$5,$6,$7,0*
20,1,$1+$1,$6,$7,$8,$9,0*
20,1,$1+$1,$8,$9,$2,$3,0*%
%AMRotRect*
0 Rectangle, with rotation*
0 The origin of the aperture is its center*
0 $1 length*
0 $2 width*
0 $3 Rotation angle, in degrees counterclockwise*
0 Add horizontal line*
21,1,$1,$2,0,0,$3*%
G04 Aperture macros list end*
%ADD10RoundRect,0.140000X-0.140000X-0.170000X0.140000X-0.170000X0.140000X0.170000X-0.140000X0.170000X0*%
%ADD11RoundRect,0.135000X-0.135000X-0.185000X0.135000X-0.185000X0.135000X0.185000X-0.135000X0.185000X0*%
%ADD12RoundRect,0.140000X0.140000X0.170000X-0.140000X0.170000X-0.140000X-0.170000X0.140000X-0.170000X0*%
%ADD13R,1.500000X5.080000*%
%ADD14RoundRect,0.140000X0.170000X-0.140000X0.170000X0.140000X-0.170000X0.140000X-0.170000X-0.140000X0*%
%ADD15RoundRect,0.147500X-0.147500X-0.172500X0.147500X-0.172500X0.147500X0.172500X-0.147500X0.172500X0*%
%ADD16RoundRect,0.135000X0.185000X-0.135000X0.185000X0.135000X-0.185000X0.135000X-0.185000X-0.135000X0*%
%ADD17RoundRect,0.225000X-0.225000X-0.250000X0.225000X-0.250000X0.225000X0.250000X-0.225000X0.250000X0*%
%ADD18RoundRect,0.140000X-0.170000X0.140000X-0.170000X-0.140000X0.170000X-0.140000X0.170000X0.140000X0*%
%ADD19RoundRect,0.150000X0.150000X-0.825000X0.150000X0.825000X-0.150000X0.825000X-0.150000X-0.825000X0*%
%ADD20RoundRect,0.135000X-0.185000X0.135000X-0.185000X-0.135000X0.185000X-0.135000X0.185000X0.135000X0*%
%ADD21RoundRect,0.250000X0.325000X0.250000X-0.325000X0.250000X-0.325000X-0.250000X0.325000X-0.250000X0*%
%ADD22RoundRect,0.147500X0.147500X0.172500X-0.147500X0.172500X-0.147500X-0.172500X0.147500X-0.172500X0*%
%ADD23RoundRect,0.218750X0.256250X-0.218750X0.256250X0.218750X-0.256250X0.218750X-0.256250X-0.218750X0*%
%ADD24R,1.000000X1.500000*%
%ADD25RoundRect,0.135000X0.035355X-0.226274X0.226274X-0.035355X-0.035355X0.226274X-0.226274X0.035355X0*%
%ADD26RoundRect,0.125000X-0.250000X-0.125000X0.250000X-0.125000X0.250000X0.125000X-0.250000X0.125000X0*%
%ADD27R,3.400000X4.300000*%
%ADD28R,1.050000X0.399999*%
%ADD29R,0.200000X0.599999*%
%ADD30RoundRect,0.190000X-0.190000X0.635000X-0.190000X-0.635000X0.190000X-0.635000X0.190000X0.635000X0*%
%ADD31RoundRect,0.150000X0.150000X-0.512500X0.150000X0.512500X-0.150000X0.512500X-0.150000X-0.512500X0*%
%ADD32RoundRect,0.218750X-0.218750X-0.256250X0.218750X-0.256250X0.218750X0.256250X-0.218750X0.256250X0*%
%ADD33RoundRect,0.162500X-0.162500X0.837500X-0.162500X-0.837500X0.162500X-0.837500X0.162500X0.837500X0*%
%ADD34C,2.000000*%
%ADD35RoundRect,0.075000X0.075000X-0.700000X0.075000X0.700000X-0.075000X0.700000X-0.075000X-0.700000X0*%
%ADD36RoundRect,0.075000X0.700000X-0.075000X0.700000X0.075000X-0.700000X0.075000X-0.700000X-0.075000X0*%
%ADD37RoundRect,0.100000X0.100000X-0.225000X0.100000X0.225000X-0.100000X0.225000X-0.100000X-0.225000X0*%
%ADD38RoundRect,0.200000X0.275000X-0.200000X0.275000X0.200000X-0.275000X0.200000X-0.275000X-0.200000X0*%
%ADD39RoundRect,0.147500X-0.172500X0.147500X-0.172500X-0.147500X0.172500X-0.147500X0.172500X0.147500X0*%
%ADD40RoundRect,0.062500X-0.062500X0.375000X-0.062500X-0.375000X0.062500X-0.375000X0.062500X0.375000X0*%
%ADD41R,2.340000X1.600000*%
%ADD42RoundRect,0.218750X-0.256250X0.218750X-0.256250X-0.218750X0.256250X-0.218750X0.256250X0.218750X0*%
%ADD43RoundRect,0.225000X0.250000X-0.225000X0.250000X0.225000X-0.250000X0.225000X-0.250000X-0.225000X0*%
%ADD44R,1.700000X1.700000*%
%ADD45O,1.700000X1.700000*%
%ADD46RoundRect,0.250000X0.250000X0.300000X-0.250000X0.300000X-0.250000X-0.300000X0.250000X-0.300000X0*%
%ADD47RoundRect,0.225000X0.225000X0.250000X-0.225000X0.250000X-0.225000X-0.250000X0.225000X-0.250000X0*%
%ADD48R,0.900000X1.000000*%
%ADD49RoundRect,0.200000X-0.275000X0.200000X-0.275000X-0.200000X0.275000X-0.200000X0.275000X0.200000X0*%
%ADD50R,0.406400X1.320800*%
%ADD51RoundRect,0.075000X-0.662500X-0.075000X0.662500X-0.075000X0.662500X0.075000X-0.662500X0.075000X0*%
%ADD52RoundRect,0.075000X-0.075000X-0.662500X0.075000X-0.662500X0.075000X0.662500X-0.075000X0.662500X0*%
%ADD53RoundRect,0.237500X0.237500X-0.287500X0.237500X0.287500X-0.237500X0.287500X-0.237500X-0.287500X0*%
%ADD54RoundRect,0.135000X0.135000X0.185000X-0.135000X0.185000X-0.135000X-0.185000X0.135000X-0.185000X0*%
%ADD55RoundRect,0.050000X-0.387500X-0.050000X0.387500X-0.050000X0.387500X0.050000X-0.387500X0.050000X0*%
%ADD56RoundRect,0.050000X-0.050000X-0.387500X0.050000X-0.387500X0.050000X0.387500X-0.050000X0.387500X0*%
%ADD57RoundRect,0.144000X-1.456000X-1.456000X1.456000X-1.456000X1.456000X1.456000X-1.456000X1.456000X0*%
%ADD58RoundRect,0.140000X-0.219203X-0.021213X-0.021213X-0.219203X0.219203X0.021213X0.021213X0.219203X0*%
%ADD59RoundRect,0.100000X-0.100000X0.225000X-0.100000X-0.225000X0.100000X-0.225000X0.100000X0.225000X0*%
%ADD60RoundRect,0.140000X0.021213X-0.219203X0.219203X-0.021213X-0.021213X0.219203X-0.219203X0.021213X0*%
%ADD61RoundRect,0.100000X0.350000X-0.300000X0.350000X0.300000X-0.350000X0.300000X-0.350000X-0.300000X0*%
%ADD62RoundRect,0.062500X0.062500X-0.375000X0.062500X0.375000X-0.062500X0.375000X-0.062500X-0.375000X0*%
%ADD63RoundRect,0.250000X-0.620000X-0.620000X0.620000X-0.620000X0.620000X0.620000X-0.620000X0.620000X0*%
%ADD64C,1.740000*%
%ADD65RoundRect,0.200000X-0.200000X-0.275000X0.200000X-0.275000X0.200000X0.275000X-0.200000X0.275000X0*%
%ADD66C,0.650000*%
%ADD67RoundRect,0.150000X-0.150000X-0.425000X0.150000X-0.425000X0.150000X0.425000X-0.150000X0.425000X0*%
%ADD68RoundRect,0.075000X-0.075000X-0.500000X0.075000X-0.500000X0.075000X0.500000X-0.075000X0.500000X0*%
%ADD69O,1.000000X2.100000*%
%ADD70O,1.000000X1.800000*%
%ADD71RoundRect,0.200000X0.200000X0.275000X-0.200000X0.275000X-0.200000X-0.275000X0.200000X-0.275000X0*%
%ADD72RoundRect,0.140000X-0.021213X0.219203X-0.219203X0.021213X0.021213X-0.219203X0.219203X-0.021213X0*%
%ADD73RoundRect,0.225000X-0.250000X0.225000X-0.250000X-0.225000X0.250000X-0.225000X0.250000X0.225000X0*%
%ADD74RotRect,0.249200X0.804800X315.000000*%
%ADD75RotRect,0.249200X0.804800X225.000000*%
%ADD76RotRect,2.550000X2.550000X225.000000*%
%ADD77R,0.804800X0.249200*%
%ADD78R,0.249200X0.804800*%
%ADD79R,2.550000X2.550000*%
%ADD80R,0.812800X0.203200*%
%ADD81R,0.203200X0.812800*%
%ADD82R,5.511800X5.511800*%
%ADD83RoundRect,0.250000X-0.300000X0.250000X-0.300000X-0.250000X0.300000X-0.250000X0.300000X0.250000X0*%
G04 APERTURE END LIST*
%TO.C,JP3*%
G36*
X119400000Y-112000000D02*
G01*
X119100000Y-112000000D01*
X119100000Y-110500000D01*
X119400000Y-110500000D01*
X119400000Y-112000000D01*
G37*
%TO.C,JP2*%
G36*
X119150000Y-109350000D02*
G01*
X118850000Y-109350000D01*
X118850000Y-107850000D01*
X119150000Y-107850000D01*
X119150000Y-109350000D01*
G37*
%TD*%
D10*
%TO.C,C66*%
X91520000Y-105750000D03*
X92480000Y-105750000D03*
%TD*%
D11*
%TO.C,R42*%
X108490000Y-117750000D03*
X109510000Y-117750000D03*
%TD*%
D12*
%TO.C,C46*%
X92980000Y-60212500D03*
X92020000Y-60212500D03*
%TD*%
D13*
%TO.C,J1*%
X86250000Y-31862500D03*
X82000000Y-31862500D03*
X90500000Y-31862500D03*
%TD*%
D14*
%TO.C,C95*%
X113800000Y-101580000D03*
X113800000Y-100620000D03*
%TD*%
D12*
%TO.C,C22*%
X79780000Y-65500000D03*
X78820000Y-65500000D03*
%TD*%
D15*
%TO.C,L1*%
X96615000Y-38900000D03*
X97585000Y-38900000D03*
%TD*%
D16*
%TO.C,R4*%
X90500000Y-76760000D03*
X90500000Y-75740000D03*
%TD*%
D17*
%TO.C,C113*%
X131925000Y-109600000D03*
X133475000Y-109600000D03*
%TD*%
D16*
%TO.C,R6*%
X93000000Y-76760000D03*
X93000000Y-75740000D03*
%TD*%
D12*
%TO.C,C25*%
X105250000Y-52500000D03*
X104290000Y-52500000D03*
%TD*%
D16*
%TO.C,R45*%
X110925000Y-132770000D03*
X110925000Y-131750000D03*
%TD*%
D18*
%TO.C,C89*%
X109250000Y-126020000D03*
X109250000Y-126980000D03*
%TD*%
D16*
%TO.C,R49*%
X110750000Y-134770000D03*
X110750000Y-133750000D03*
%TD*%
D19*
%TO.C,U11*%
X84845000Y-117000000D03*
X86115000Y-117000000D03*
X87385000Y-117000000D03*
X88655000Y-117000000D03*
X88655000Y-112050000D03*
X87385000Y-112050000D03*
X86115000Y-112050000D03*
X84845000Y-112050000D03*
%TD*%
D20*
%TO.C,R38*%
X107000000Y-125990000D03*
X107000000Y-127010000D03*
%TD*%
D21*
%TO.C,Y2*%
X124875000Y-113937500D03*
X123125000Y-113937500D03*
X123125000Y-115337500D03*
X124875000Y-115337500D03*
%TD*%
D22*
%TO.C,L21*%
X109685000Y-36500000D03*
X108715000Y-36500000D03*
%TD*%
D23*
%TO.C,L13*%
X98760000Y-54500000D03*
X98760000Y-52925000D03*
%TD*%
D13*
%TO.C,J2*%
X107600000Y-31862500D03*
X103350000Y-31862500D03*
X111850000Y-31862500D03*
%TD*%
D18*
%TO.C,C23*%
X85900000Y-51220000D03*
X85900000Y-52180000D03*
%TD*%
%TO.C,C43*%
X88212500Y-71520000D03*
X88212500Y-72480000D03*
%TD*%
D23*
%TO.C,L8*%
X108537500Y-55287500D03*
X108537500Y-53712500D03*
%TD*%
D24*
%TO.C,JP1*%
X105850000Y-69000000D03*
X107150000Y-69000000D03*
%TD*%
D20*
%TO.C,R15*%
X87500000Y-62490000D03*
X87500000Y-63510000D03*
%TD*%
D12*
%TO.C,C71*%
X112080000Y-83650000D03*
X111120000Y-83650000D03*
%TD*%
D18*
%TO.C,C67*%
X88000000Y-96770000D03*
X88000000Y-97730000D03*
%TD*%
D25*
%TO.C,R12*%
X79339376Y-50660624D03*
X80060624Y-49939376D03*
%TD*%
D10*
%TO.C,C31*%
X96270000Y-51462500D03*
X97230000Y-51462500D03*
%TD*%
D26*
%TO.C,U16*%
X121650000Y-95020000D03*
X121650000Y-96290000D03*
X121650000Y-97560000D03*
X121650000Y-98830000D03*
X127050000Y-98830000D03*
X127050000Y-97560000D03*
X127050000Y-96290000D03*
X127050000Y-95020000D03*
D27*
X124350000Y-96925000D03*
%TD*%
D28*
%TO.C,U14*%
X107900000Y-130760000D03*
X107900000Y-131459999D03*
D29*
X107824999Y-132234998D03*
X108325000Y-132234998D03*
X108825000Y-132234998D03*
X109325001Y-132234998D03*
D28*
X109250000Y-131459999D03*
X109250000Y-130760000D03*
D29*
X109325001Y-129935000D03*
X108825000Y-129935000D03*
X108325000Y-129935000D03*
X107824999Y-129935000D03*
%TD*%
D30*
%TO.C,TR1*%
X87500000Y-45900000D03*
X86230000Y-45900000D03*
X84960000Y-45900000D03*
X84960000Y-42720000D03*
X87500000Y-42720000D03*
%TD*%
D23*
%TO.C,L15*%
X100540000Y-49787500D03*
X100540000Y-48212500D03*
%TD*%
D17*
%TO.C,C115*%
X130425000Y-97400000D03*
X131975000Y-97400000D03*
%TD*%
D14*
%TO.C,C52*%
X110300000Y-38880000D03*
X110300000Y-37920000D03*
%TD*%
D31*
%TO.C,Q1*%
X128050000Y-116437500D03*
X129950000Y-116437500D03*
X129000000Y-114162500D03*
%TD*%
D14*
%TO.C,C57*%
X96250000Y-107980000D03*
X96250000Y-107020000D03*
%TD*%
D32*
%TO.C,L16*%
X85175000Y-67730000D03*
X86750000Y-67730000D03*
%TD*%
D12*
%TO.C,C88*%
X112700000Y-65400000D03*
X111740000Y-65400000D03*
%TD*%
D33*
%TO.C,D5*%
X137400000Y-107580000D03*
X136450000Y-107580000D03*
X135500000Y-107580000D03*
X135500000Y-111000000D03*
X136450000Y-111000000D03*
X137400000Y-111000000D03*
%TD*%
D16*
%TO.C,R32*%
X100250000Y-133010000D03*
X100250000Y-131990000D03*
%TD*%
D11*
%TO.C,R28*%
X88490000Y-119775000D03*
X89510000Y-119775000D03*
%TD*%
D23*
%TO.C,L14*%
X100520000Y-53000000D03*
X100520000Y-51425000D03*
%TD*%
D11*
%TO.C,R14*%
X85952500Y-69230000D03*
X86972500Y-69230000D03*
%TD*%
D34*
%TO.C,TP6*%
X118600000Y-93200000D03*
%TD*%
D35*
%TO.C,U10*%
X93000000Y-124175000D03*
X93500000Y-124175000D03*
X94000000Y-124175000D03*
X94500000Y-124175000D03*
X95000000Y-124175000D03*
X95500000Y-124175000D03*
X96000000Y-124175000D03*
X96500000Y-124175000D03*
X97000000Y-124175000D03*
X97500000Y-124175000D03*
X98000000Y-124175000D03*
X98500000Y-124175000D03*
X99000000Y-124175000D03*
X99500000Y-124175000D03*
X100000000Y-124175000D03*
X100500000Y-124175000D03*
D36*
X102425000Y-122250000D03*
X102425000Y-121750000D03*
X102425000Y-121250000D03*
X102425000Y-120750000D03*
X102425000Y-120250000D03*
X102425000Y-119750000D03*
X102425000Y-119250000D03*
X102425000Y-118750000D03*
X102425000Y-118250000D03*
X102425000Y-117750000D03*
X102425000Y-117250000D03*
X102425000Y-116750000D03*
X102425000Y-116250000D03*
X102425000Y-115750000D03*
X102425000Y-115250000D03*
X102425000Y-114750000D03*
D35*
X100500000Y-112825000D03*
X100000000Y-112825000D03*
X99500000Y-112825000D03*
X99000000Y-112825000D03*
X98500000Y-112825000D03*
X98000000Y-112825000D03*
X97500000Y-112825000D03*
X97000000Y-112825000D03*
X96500000Y-112825000D03*
X96000000Y-112825000D03*
X95500000Y-112825000D03*
X95000000Y-112825000D03*
X94500000Y-112825000D03*
X94000000Y-112825000D03*
X93500000Y-112825000D03*
X93000000Y-112825000D03*
D36*
X91075000Y-114750000D03*
X91075000Y-115250000D03*
X91075000Y-115750000D03*
X91075000Y-116250000D03*
X91075000Y-116750000D03*
X91075000Y-117250000D03*
X91075000Y-117750000D03*
X91075000Y-118250000D03*
X91075000Y-118750000D03*
X91075000Y-119250000D03*
X91075000Y-119750000D03*
X91075000Y-120250000D03*
X91075000Y-120750000D03*
X91075000Y-121250000D03*
X91075000Y-121750000D03*
X91075000Y-122250000D03*
%TD*%
D37*
%TO.C,U6*%
X85350000Y-38700000D03*
X86000000Y-38700000D03*
X86650000Y-38700000D03*
X86650000Y-36800000D03*
X86000000Y-36800000D03*
X85350000Y-36800000D03*
%TD*%
D12*
%TO.C,C8*%
X98280000Y-37700000D03*
X97320000Y-37700000D03*
%TD*%
D14*
%TO.C,C81*%
X90500000Y-113730000D03*
X90500000Y-112770000D03*
%TD*%
D10*
%TO.C,C74*%
X99770000Y-80000000D03*
X100730000Y-80000000D03*
%TD*%
D12*
%TO.C,C64*%
X109230000Y-80000000D03*
X108270000Y-80000000D03*
%TD*%
D34*
%TO.C,TP7*%
X106300000Y-43500000D03*
%TD*%
D12*
%TO.C,C61*%
X110400000Y-107000000D03*
X109440000Y-107000000D03*
%TD*%
D16*
%TO.C,R27*%
X98000000Y-136260000D03*
X98000000Y-135240000D03*
%TD*%
D38*
%TO.C,R63*%
X124400000Y-119925000D03*
X124400000Y-118275000D03*
%TD*%
D10*
%TO.C,C99*%
X107020000Y-128760000D03*
X107980000Y-128760000D03*
%TD*%
D11*
%TO.C,R46*%
X110655000Y-112712500D03*
X111675000Y-112712500D03*
%TD*%
D38*
%TO.C,R69*%
X119600000Y-98125000D03*
X119600000Y-96475000D03*
%TD*%
D14*
%TO.C,C54*%
X90475360Y-51070200D03*
X90475360Y-50110200D03*
%TD*%
D10*
%TO.C,C86*%
X109760000Y-65400000D03*
X110720000Y-65400000D03*
%TD*%
D39*
%TO.C,L3*%
X81000000Y-65515000D03*
X81000000Y-66485000D03*
%TD*%
D40*
%TO.C,U12*%
X114000000Y-105012500D03*
X113500000Y-105012500D03*
X113000000Y-105012500D03*
X112500000Y-105012500D03*
X112500000Y-107887500D03*
X113000000Y-107887500D03*
X113500000Y-107887500D03*
X114000000Y-107887500D03*
D41*
X113250000Y-106450000D03*
%TD*%
D34*
%TO.C,TP3*%
X140700000Y-109100000D03*
%TD*%
D42*
%TO.C,L22*%
X100250000Y-134462500D03*
X100250000Y-136037500D03*
%TD*%
D43*
%TO.C,C114*%
X128600000Y-94875000D03*
X128600000Y-93325000D03*
%TD*%
D16*
%TO.C,R26*%
X94500000Y-136260000D03*
X94500000Y-135240000D03*
%TD*%
D12*
%TO.C,C48*%
X86250000Y-35500000D03*
X85290000Y-35500000D03*
%TD*%
D44*
%TO.C,J5*%
X79500000Y-77340000D03*
D45*
X79500000Y-79880000D03*
X79500000Y-82420000D03*
X79500000Y-84960000D03*
X79500000Y-87500000D03*
X79500000Y-90040000D03*
X79500000Y-92580000D03*
X79500000Y-95120000D03*
X79500000Y-97660000D03*
X79500000Y-100200000D03*
X79500000Y-102740000D03*
X79500000Y-105280000D03*
%TD*%
D20*
%TO.C,R44*%
X114415000Y-114952500D03*
X114415000Y-115972500D03*
%TD*%
D32*
%TO.C,L19*%
X85175000Y-71250000D03*
X86750000Y-71250000D03*
%TD*%
D14*
%TO.C,C97*%
X111500000Y-130490000D03*
X111500000Y-129530000D03*
%TD*%
D18*
%TO.C,C47*%
X83800000Y-70520000D03*
X83800000Y-71480000D03*
%TD*%
D10*
%TO.C,C83*%
X86270000Y-110000000D03*
X87230000Y-110000000D03*
%TD*%
%TO.C,C2*%
X106120000Y-65600000D03*
X107080000Y-65600000D03*
%TD*%
D34*
%TO.C,TP1*%
X117600000Y-119100000D03*
%TD*%
D14*
%TO.C,C84*%
X98750000Y-133480000D03*
X98750000Y-132520000D03*
%TD*%
D20*
%TO.C,R35*%
X105915000Y-123702500D03*
X105915000Y-124722500D03*
%TD*%
D16*
%TO.C,R50*%
X112250000Y-132770000D03*
X112250000Y-131750000D03*
%TD*%
D46*
%TO.C,X1*%
X87600000Y-81950000D03*
X86100000Y-81950000D03*
X86100000Y-83850000D03*
X87600000Y-83850000D03*
%TD*%
D14*
%TO.C,C98*%
X112750000Y-130490000D03*
X112750000Y-129530000D03*
%TD*%
D18*
%TO.C,C10*%
X105600000Y-39820000D03*
X105600000Y-40780000D03*
%TD*%
D12*
%TO.C,C41*%
X88730000Y-64600000D03*
X87770000Y-64600000D03*
%TD*%
D47*
%TO.C,C110*%
X119675000Y-102100000D03*
X118125000Y-102100000D03*
%TD*%
D16*
%TO.C,R19*%
X104750000Y-109010000D03*
X104750000Y-107990000D03*
%TD*%
D23*
%TO.C,L12*%
X95020000Y-49750000D03*
X95020000Y-48175000D03*
%TD*%
D12*
%TO.C,C34*%
X99250000Y-51425000D03*
X98290000Y-51425000D03*
%TD*%
D16*
%TO.C,R2*%
X88000000Y-76770000D03*
X88000000Y-75750000D03*
%TD*%
D11*
%TO.C,R41*%
X110490000Y-118500000D03*
X111510000Y-118500000D03*
%TD*%
D38*
%TO.C,R62*%
X123500000Y-112325000D03*
X123500000Y-110675000D03*
%TD*%
D14*
%TO.C,C101*%
X103500000Y-131064998D03*
X103500000Y-130104998D03*
%TD*%
D18*
%TO.C,C24*%
X87700000Y-51220000D03*
X87700000Y-52180000D03*
%TD*%
D16*
%TO.C,R5*%
X91750000Y-76760000D03*
X91750000Y-75740000D03*
%TD*%
D48*
%TO.C,B2*%
X122750000Y-91450000D03*
X126850000Y-91450000D03*
X122750000Y-93050000D03*
X126850000Y-93050000D03*
%TD*%
D16*
%TO.C,R34*%
X108970000Y-62910000D03*
X108970000Y-61890000D03*
%TD*%
D10*
%TO.C,C79*%
X98270000Y-127500000D03*
X99230000Y-127500000D03*
%TD*%
D11*
%TO.C,R24*%
X93490000Y-126750000D03*
X94510000Y-126750000D03*
%TD*%
%TO.C,R52*%
X109240000Y-128760000D03*
X110260000Y-128760000D03*
%TD*%
D12*
%TO.C,C5*%
X94730000Y-61750000D03*
X93770000Y-61750000D03*
%TD*%
D49*
%TO.C,R70*%
X130200000Y-107475000D03*
X130200000Y-109125000D03*
%TD*%
D48*
%TO.C,B1*%
X130100000Y-120000000D03*
X126000000Y-120000000D03*
X130100000Y-118400000D03*
X126000000Y-118400000D03*
%TD*%
D10*
%TO.C,C96*%
X114290000Y-113750000D03*
X115250000Y-113750000D03*
%TD*%
D12*
%TO.C,C28*%
X107267500Y-53750000D03*
X106307500Y-53750000D03*
%TD*%
D50*
%TO.C,U8*%
X90524640Y-48509800D03*
X91174880Y-48509800D03*
X91825120Y-48509800D03*
X92475360Y-48509800D03*
X92475360Y-44090200D03*
X91825120Y-44090200D03*
X91174880Y-44090200D03*
X90524640Y-44090200D03*
%TD*%
D24*
%TO.C,JP3*%
X119900000Y-111250000D03*
X118600000Y-111250000D03*
%TD*%
D23*
%TO.C,D1*%
X103250000Y-109787500D03*
X103250000Y-108212500D03*
%TD*%
D11*
%TO.C,R56*%
X106490000Y-133260000D03*
X107510000Y-133260000D03*
%TD*%
D30*
%TO.C,TR2*%
X81000000Y-63800000D03*
X79730000Y-63800000D03*
X78460000Y-63800000D03*
X78460000Y-60620000D03*
X81000000Y-60620000D03*
%TD*%
D12*
%TO.C,C9*%
X99280000Y-36600000D03*
X98320000Y-36600000D03*
%TD*%
D18*
%TO.C,C19*%
X82200000Y-57120000D03*
X82200000Y-58080000D03*
%TD*%
%TO.C,C91*%
X115085000Y-109120000D03*
X115085000Y-110080000D03*
%TD*%
D12*
%TO.C,C77*%
X93480000Y-129250000D03*
X92520000Y-129250000D03*
%TD*%
D51*
%TO.C,U15*%
X89587500Y-84750000D03*
X89587500Y-85250000D03*
X89587500Y-85750000D03*
X89587500Y-86250000D03*
X89587500Y-86750000D03*
X89587500Y-87250000D03*
X89587500Y-87750000D03*
X89587500Y-88250000D03*
X89587500Y-88750000D03*
X89587500Y-89250000D03*
X89587500Y-89750000D03*
X89587500Y-90250000D03*
X89587500Y-90750000D03*
X89587500Y-91250000D03*
X89587500Y-91750000D03*
X89587500Y-92250000D03*
X89587500Y-92750000D03*
X89587500Y-93250000D03*
X89587500Y-93750000D03*
X89587500Y-94250000D03*
X89587500Y-94750000D03*
X89587500Y-95250000D03*
X89587500Y-95750000D03*
X89587500Y-96250000D03*
X89587500Y-96750000D03*
X89587500Y-97250000D03*
X89587500Y-97750000D03*
X89587500Y-98250000D03*
X89587500Y-98750000D03*
X89587500Y-99250000D03*
X89587500Y-99750000D03*
X89587500Y-100250000D03*
X89587500Y-100750000D03*
X89587500Y-101250000D03*
X89587500Y-101750000D03*
X89587500Y-102250000D03*
D52*
X91500000Y-104162500D03*
X92000000Y-104162500D03*
X92500000Y-104162500D03*
X93000000Y-104162500D03*
X93500000Y-104162500D03*
X94000000Y-104162500D03*
X94500000Y-104162500D03*
X95000000Y-104162500D03*
X95500000Y-104162500D03*
X96000000Y-104162500D03*
X96500000Y-104162500D03*
X97000000Y-104162500D03*
X97500000Y-104162500D03*
X98000000Y-104162500D03*
X98500000Y-104162500D03*
X99000000Y-104162500D03*
X99500000Y-104162500D03*
X100000000Y-104162500D03*
X100500000Y-104162500D03*
X101000000Y-104162500D03*
X101500000Y-104162500D03*
X102000000Y-104162500D03*
X102500000Y-104162500D03*
X103000000Y-104162500D03*
X103500000Y-104162500D03*
X104000000Y-104162500D03*
X104500000Y-104162500D03*
X105000000Y-104162500D03*
X105500000Y-104162500D03*
X106000000Y-104162500D03*
X106500000Y-104162500D03*
X107000000Y-104162500D03*
X107500000Y-104162500D03*
X108000000Y-104162500D03*
X108500000Y-104162500D03*
X109000000Y-104162500D03*
D51*
X110912500Y-102250000D03*
X110912500Y-101750000D03*
X110912500Y-101250000D03*
X110912500Y-100750000D03*
X110912500Y-100250000D03*
X110912500Y-99750000D03*
X110912500Y-99250000D03*
X110912500Y-98750000D03*
X110912500Y-98250000D03*
X110912500Y-97750000D03*
X110912500Y-97250000D03*
X110912500Y-96750000D03*
X110912500Y-96250000D03*
X110912500Y-95750000D03*
X110912500Y-95250000D03*
X110912500Y-94750000D03*
X110912500Y-94250000D03*
X110912500Y-93750000D03*
X110912500Y-93250000D03*
X110912500Y-92750000D03*
X110912500Y-92250000D03*
X110912500Y-91750000D03*
X110912500Y-91250000D03*
X110912500Y-90750000D03*
X110912500Y-90250000D03*
X110912500Y-89750000D03*
X110912500Y-89250000D03*
X110912500Y-88750000D03*
X110912500Y-88250000D03*
X110912500Y-87750000D03*
X110912500Y-87250000D03*
X110912500Y-86750000D03*
X110912500Y-86250000D03*
X110912500Y-85750000D03*
X110912500Y-85250000D03*
X110912500Y-84750000D03*
D52*
X109000000Y-82837500D03*
X108500000Y-82837500D03*
X108000000Y-82837500D03*
X107500000Y-82837500D03*
X107000000Y-82837500D03*
X106500000Y-82837500D03*
X106000000Y-82837500D03*
X105500000Y-82837500D03*
X105000000Y-82837500D03*
X104500000Y-82837500D03*
X104000000Y-82837500D03*
X103500000Y-82837500D03*
X103000000Y-82837500D03*
X102500000Y-82837500D03*
X102000000Y-82837500D03*
X101500000Y-82837500D03*
X101000000Y-82837500D03*
X100500000Y-82837500D03*
X100000000Y-82837500D03*
X99500000Y-82837500D03*
X99000000Y-82837500D03*
X98500000Y-82837500D03*
X98000000Y-82837500D03*
X97500000Y-82837500D03*
X97000000Y-82837500D03*
X96500000Y-82837500D03*
X96000000Y-82837500D03*
X95500000Y-82837500D03*
X95000000Y-82837500D03*
X94500000Y-82837500D03*
X94000000Y-82837500D03*
X93500000Y-82837500D03*
X93000000Y-82837500D03*
X92500000Y-82837500D03*
X92000000Y-82837500D03*
X91500000Y-82837500D03*
%TD*%
D23*
%TO.C,L10*%
X96750000Y-54500000D03*
X96750000Y-52925000D03*
%TD*%
D16*
%TO.C,R36*%
X113970000Y-62160000D03*
X113970000Y-61140000D03*
%TD*%
D12*
%TO.C,C37*%
X84942500Y-69230000D03*
X83982500Y-69230000D03*
%TD*%
D14*
%TO.C,C63*%
X88000000Y-100480000D03*
X88000000Y-99520000D03*
%TD*%
D16*
%TO.C,R8*%
X95500000Y-76760000D03*
X95500000Y-75740000D03*
%TD*%
D53*
%TO.C,D4*%
X130200000Y-112475000D03*
X130200000Y-110725000D03*
%TD*%
D12*
%TO.C,C3*%
X101230000Y-75500000D03*
X100270000Y-75500000D03*
%TD*%
D54*
%TO.C,R21*%
X100260000Y-108500000D03*
X99240000Y-108500000D03*
%TD*%
D18*
%TO.C,C40*%
X88212500Y-67770000D03*
X88212500Y-68730000D03*
%TD*%
D23*
%TO.C,L6*%
X103000000Y-55037500D03*
X103000000Y-53462500D03*
%TD*%
D55*
%TO.C,U9*%
X121412500Y-102900000D03*
X121412500Y-103300000D03*
X121412500Y-103700000D03*
X121412500Y-104100000D03*
X121412500Y-104500000D03*
X121412500Y-104900000D03*
X121412500Y-105300000D03*
X121412500Y-105700000D03*
X121412500Y-106100000D03*
X121412500Y-106500000D03*
X121412500Y-106900000D03*
X121412500Y-107300000D03*
X121412500Y-107700000D03*
X121412500Y-108100000D03*
D56*
X122250000Y-108937500D03*
X122650000Y-108937500D03*
X123050000Y-108937500D03*
X123450000Y-108937500D03*
X123850000Y-108937500D03*
X124250000Y-108937500D03*
X124650000Y-108937500D03*
X125050000Y-108937500D03*
X125450000Y-108937500D03*
X125850000Y-108937500D03*
X126250000Y-108937500D03*
X126650000Y-108937500D03*
X127050000Y-108937500D03*
X127450000Y-108937500D03*
D55*
X128287500Y-108100000D03*
X128287500Y-107700000D03*
X128287500Y-107300000D03*
X128287500Y-106900000D03*
X128287500Y-106500000D03*
X128287500Y-106100000D03*
X128287500Y-105700000D03*
X128287500Y-105300000D03*
X128287500Y-104900000D03*
X128287500Y-104500000D03*
X128287500Y-104100000D03*
X128287500Y-103700000D03*
X128287500Y-103300000D03*
X128287500Y-102900000D03*
D56*
X127450000Y-102062500D03*
X127050000Y-102062500D03*
X126650000Y-102062500D03*
X126250000Y-102062500D03*
X125850000Y-102062500D03*
X125450000Y-102062500D03*
X125050000Y-102062500D03*
X124650000Y-102062500D03*
X124250000Y-102062500D03*
X123850000Y-102062500D03*
X123450000Y-102062500D03*
X123050000Y-102062500D03*
X122650000Y-102062500D03*
X122250000Y-102062500D03*
D57*
X124850000Y-105500000D03*
%TD*%
D10*
%TO.C,C12*%
X96620000Y-40100000D03*
X97580000Y-40100000D03*
%TD*%
D20*
%TO.C,R1*%
X109300000Y-74890000D03*
X109300000Y-75910000D03*
%TD*%
D16*
%TO.C,R11*%
X99250000Y-76760000D03*
X99250000Y-75740000D03*
%TD*%
D11*
%TO.C,R48*%
X111575000Y-103600000D03*
X112595000Y-103600000D03*
%TD*%
D16*
%TO.C,R25*%
X100500000Y-127260000D03*
X100500000Y-126240000D03*
%TD*%
D10*
%TO.C,C26*%
X104270000Y-53770000D03*
X105230000Y-53770000D03*
%TD*%
D16*
%TO.C,R37*%
X112220000Y-59660000D03*
X112220000Y-58640000D03*
%TD*%
D18*
%TO.C,C21*%
X78300000Y-56420000D03*
X78300000Y-57380000D03*
%TD*%
D22*
%TO.C,L2*%
X88500000Y-41000000D03*
X87530000Y-41000000D03*
%TD*%
D12*
%TO.C,C32*%
X97230000Y-50212500D03*
X96270000Y-50212500D03*
%TD*%
D33*
%TO.C,D2*%
X97200000Y-129500000D03*
X96250000Y-129500000D03*
X95300000Y-129500000D03*
X95300000Y-132920000D03*
X96250000Y-132920000D03*
X97200000Y-132920000D03*
%TD*%
D16*
%TO.C,R58*%
X105300000Y-51510000D03*
X105300000Y-50490000D03*
%TD*%
D58*
%TO.C,C15*%
X80560589Y-48660589D03*
X81239411Y-49339411D03*
%TD*%
D12*
%TO.C,C60*%
X89780000Y-108400000D03*
X88820000Y-108400000D03*
%TD*%
%TO.C,C68*%
X113430000Y-93500000D03*
X112470000Y-93500000D03*
%TD*%
D16*
%TO.C,R54*%
X108500000Y-134770000D03*
X108500000Y-133750000D03*
%TD*%
D11*
%TO.C,R47*%
X113575000Y-103600000D03*
X114595000Y-103600000D03*
%TD*%
D59*
%TO.C,U7*%
X108950000Y-37850000D03*
X108300000Y-37850000D03*
X107650000Y-37850000D03*
X107650000Y-39750000D03*
X108300000Y-39750000D03*
X108950000Y-39750000D03*
%TD*%
D14*
%TO.C,C100*%
X104750000Y-131064998D03*
X104750000Y-130104998D03*
%TD*%
D54*
%TO.C,R53*%
X107260000Y-134510000D03*
X106240000Y-134510000D03*
%TD*%
D17*
%TO.C,C102*%
X119825000Y-115300000D03*
X121375000Y-115300000D03*
%TD*%
D14*
%TO.C,C82*%
X91750000Y-112730000D03*
X91750000Y-111770000D03*
%TD*%
D60*
%TO.C,C16*%
X78060589Y-52239411D03*
X78739411Y-51560589D03*
%TD*%
D14*
%TO.C,C38*%
X87500000Y-61480000D03*
X87500000Y-60520000D03*
%TD*%
D12*
%TO.C,C78*%
X93480000Y-128000000D03*
X92520000Y-128000000D03*
%TD*%
D34*
%TO.C,TP2*%
X134700000Y-97400000D03*
%TD*%
D20*
%TO.C,R43*%
X115585000Y-105840000D03*
X115585000Y-106860000D03*
%TD*%
D23*
%TO.C,L5*%
X103037500Y-51750000D03*
X103037500Y-50175000D03*
%TD*%
D10*
%TO.C,C65*%
X91520000Y-107000000D03*
X92480000Y-107000000D03*
%TD*%
D11*
%TO.C,R22*%
X100740000Y-78750000D03*
X101760000Y-78750000D03*
%TD*%
D12*
%TO.C,C36*%
X84692500Y-72750000D03*
X83732500Y-72750000D03*
%TD*%
D14*
%TO.C,C18*%
X81000000Y-57880000D03*
X81000000Y-56920000D03*
%TD*%
D18*
%TO.C,C6*%
X94900000Y-63520000D03*
X94900000Y-64480000D03*
%TD*%
D20*
%TO.C,R39*%
X112585000Y-109090000D03*
X112585000Y-110110000D03*
%TD*%
D14*
%TO.C,C42*%
X93800000Y-63750000D03*
X93800000Y-62790000D03*
%TD*%
D12*
%TO.C,C70*%
X113430000Y-92450000D03*
X112470000Y-92450000D03*
%TD*%
D49*
%TO.C,R68*%
X121100000Y-91425000D03*
X121100000Y-93075000D03*
%TD*%
D12*
%TO.C,C85*%
X109895000Y-120462500D03*
X108935000Y-120462500D03*
%TD*%
D47*
%TO.C,C111*%
X121075000Y-113400000D03*
X119525000Y-113400000D03*
%TD*%
D61*
%TO.C,X2*%
X88250000Y-105450000D03*
X88250000Y-104250000D03*
X86750000Y-104250000D03*
X86750000Y-105450000D03*
%TD*%
D10*
%TO.C,C17*%
X89120000Y-39900000D03*
X90080000Y-39900000D03*
%TD*%
D49*
%TO.C,R64*%
X137500000Y-103425000D03*
X137500000Y-105075000D03*
%TD*%
D20*
%TO.C,R29*%
X87000000Y-120740000D03*
X87000000Y-121760000D03*
%TD*%
D18*
%TO.C,C53*%
X107600000Y-35620000D03*
X107600000Y-36580000D03*
%TD*%
D62*
%TO.C,U5*%
X110720000Y-63900000D03*
X111220000Y-63900000D03*
X111720000Y-63900000D03*
X112220000Y-63900000D03*
X112220000Y-61025000D03*
X111720000Y-61025000D03*
X111220000Y-61025000D03*
X110720000Y-61025000D03*
D41*
X111470000Y-62462500D03*
%TD*%
D16*
%TO.C,R3*%
X89250000Y-76770000D03*
X89250000Y-75750000D03*
%TD*%
D17*
%TO.C,C105*%
X126975000Y-111600000D03*
X128525000Y-111600000D03*
%TD*%
D20*
%TO.C,R33*%
X110665000Y-122452500D03*
X110665000Y-123472500D03*
%TD*%
D12*
%TO.C,C69*%
X109230000Y-81250000D03*
X108270000Y-81250000D03*
%TD*%
D10*
%TO.C,C45*%
X88520000Y-60250000D03*
X89480000Y-60250000D03*
%TD*%
D49*
%TO.C,R65*%
X135250000Y-103425000D03*
X135250000Y-105075000D03*
%TD*%
D54*
%TO.C,R61*%
X98760000Y-49000000D03*
X97740000Y-49000000D03*
%TD*%
D63*
%TO.C,J4*%
X107960000Y-140500000D03*
D64*
X110500000Y-140500000D03*
%TD*%
D20*
%TO.C,R18*%
X93975360Y-44490000D03*
X93975360Y-45510000D03*
%TD*%
D12*
%TO.C,C55*%
X94480000Y-43300000D03*
X93520000Y-43300000D03*
%TD*%
D65*
%TO.C,R72*%
X139075000Y-112200000D03*
X140725000Y-112200000D03*
%TD*%
D15*
%TO.C,L20*%
X85015000Y-40000000D03*
X85985000Y-40000000D03*
%TD*%
D16*
%TO.C,R40*%
X111335000Y-110110000D03*
X111335000Y-109090000D03*
%TD*%
D34*
%TO.C,TP9*%
X110000000Y-45600000D03*
%TD*%
D18*
%TO.C,C20*%
X79400000Y-56420000D03*
X79400000Y-57380000D03*
%TD*%
D12*
%TO.C,C7*%
X94980000Y-60500000D03*
X94020000Y-60500000D03*
%TD*%
D16*
%TO.C,R23*%
X106000000Y-109010000D03*
X106000000Y-107990000D03*
%TD*%
D43*
%TO.C,C116*%
X121000000Y-119875000D03*
X121000000Y-118325000D03*
%TD*%
D11*
%TO.C,R57*%
X112655000Y-112712500D03*
X113675000Y-112712500D03*
%TD*%
D43*
%TO.C,C107*%
X122600000Y-119875000D03*
X122600000Y-118325000D03*
%TD*%
D24*
%TO.C,JP2*%
X119650000Y-108600000D03*
X118350000Y-108600000D03*
%TD*%
D18*
%TO.C,C94*%
X109415000Y-113982500D03*
X109415000Y-114942500D03*
%TD*%
D10*
%TO.C,C80*%
X98270000Y-126250000D03*
X99230000Y-126250000D03*
%TD*%
D17*
%TO.C,C108*%
X131925000Y-107700000D03*
X133475000Y-107700000D03*
%TD*%
D12*
%TO.C,C90*%
X110200000Y-59650000D03*
X109240000Y-59650000D03*
%TD*%
D66*
%TO.C,J3*%
X93360000Y-139070000D03*
X99140000Y-139070000D03*
D67*
X93050000Y-137995000D03*
X93850000Y-137995000D03*
D68*
X95000000Y-137995000D03*
X96000000Y-137995000D03*
X96500000Y-137995000D03*
X97500000Y-137995000D03*
D67*
X98650000Y-137995000D03*
X99450000Y-137995000D03*
X99450000Y-137995000D03*
X98650000Y-137995000D03*
D68*
X98000000Y-137995000D03*
X97000000Y-137995000D03*
X95500000Y-137995000D03*
X94500000Y-137995000D03*
D67*
X93850000Y-137995000D03*
X93050000Y-137995000D03*
D69*
X91930000Y-138570000D03*
D70*
X91930000Y-142750000D03*
D69*
X100570000Y-138570000D03*
D70*
X100570000Y-142750000D03*
%TD*%
D10*
%TO.C,C87*%
X106935000Y-120462500D03*
X107895000Y-120462500D03*
%TD*%
D54*
%TO.C,R55*%
X106510000Y-132260000D03*
X105490000Y-132260000D03*
%TD*%
D71*
%TO.C,R71*%
X133825000Y-112000000D03*
X132175000Y-112000000D03*
%TD*%
D16*
%TO.C,R60*%
X96500000Y-49260000D03*
X96500000Y-48240000D03*
%TD*%
D12*
%TO.C,C72*%
X112080000Y-82500000D03*
X111120000Y-82500000D03*
%TD*%
%TO.C,C49*%
X88080000Y-39900000D03*
X87120000Y-39900000D03*
%TD*%
D10*
%TO.C,C58*%
X97520000Y-81000000D03*
X98480000Y-81000000D03*
%TD*%
%TO.C,C76*%
X99770000Y-81250000D03*
X100730000Y-81250000D03*
%TD*%
%TO.C,C35*%
X98290000Y-50175000D03*
X99250000Y-50175000D03*
%TD*%
D72*
%TO.C,C14*%
X84739411Y-48060589D03*
X84060589Y-48739411D03*
%TD*%
D73*
%TO.C,C103*%
X125200000Y-110725000D03*
X125200000Y-112275000D03*
%TD*%
D40*
%TO.C,U4*%
X108915000Y-121712500D03*
X108415000Y-121712500D03*
X107915000Y-121712500D03*
X107415000Y-121712500D03*
X107415000Y-124587500D03*
X107915000Y-124587500D03*
X108415000Y-124587500D03*
X108915000Y-124587500D03*
D41*
X108165000Y-123150000D03*
%TD*%
D40*
%TO.C,U13*%
X112665000Y-114212500D03*
X112165000Y-114212500D03*
X111665000Y-114212500D03*
X111165000Y-114212500D03*
X111165000Y-117087500D03*
X111665000Y-117087500D03*
X112165000Y-117087500D03*
X112665000Y-117087500D03*
D41*
X111915000Y-115650000D03*
%TD*%
D14*
%TO.C,C27*%
X106787500Y-58980000D03*
X106787500Y-58020000D03*
%TD*%
D12*
%TO.C,C4*%
X101230000Y-76500000D03*
X100270000Y-76500000D03*
%TD*%
D74*
%TO.C,U3*%
X84064438Y-52706658D03*
X83710885Y-52353105D03*
X83357331Y-51999551D03*
X83003778Y-51645998D03*
X82650224Y-51292444D03*
X82296671Y-50938891D03*
D75*
X81303329Y-50938891D03*
X80949776Y-51292444D03*
X80596222Y-51645998D03*
X80242669Y-51999551D03*
X79889115Y-52353105D03*
X79535562Y-52706658D03*
D74*
X79535562Y-53700000D03*
X79889115Y-54053553D03*
X80242669Y-54407107D03*
X80596222Y-54760660D03*
X80949776Y-55114214D03*
X81303329Y-55467767D03*
D75*
X82296671Y-55467767D03*
X82650224Y-55114214D03*
X83003778Y-54760660D03*
X83357331Y-54407107D03*
X83710885Y-54053553D03*
X84064438Y-53700000D03*
D76*
X81800000Y-53203329D03*
%TD*%
D16*
%TO.C,R9*%
X96750000Y-76760000D03*
X96750000Y-75740000D03*
%TD*%
D14*
%TO.C,C56*%
X112750000Y-95480000D03*
X112750000Y-94520000D03*
%TD*%
D23*
%TO.C,L4*%
X104750000Y-56787500D03*
X104750000Y-55212500D03*
%TD*%
D18*
%TO.C,C50*%
X83900000Y-37720000D03*
X83900000Y-38680000D03*
%TD*%
%TO.C,C93*%
X110835000Y-104870000D03*
X110835000Y-105830000D03*
%TD*%
D23*
%TO.C,L11*%
X95000000Y-53000000D03*
X95000000Y-51425000D03*
%TD*%
D16*
%TO.C,R20*%
X108000000Y-108760000D03*
X108000000Y-107740000D03*
%TD*%
D10*
%TO.C,C73*%
X99270000Y-106000000D03*
X100230000Y-106000000D03*
%TD*%
D77*
%TO.C,U2*%
X99595202Y-38250000D03*
X99595202Y-38749999D03*
X99595202Y-39250000D03*
X99595202Y-39750000D03*
X99595202Y-40250001D03*
X99595202Y-40750000D03*
D78*
X100297601Y-41452399D03*
X100797600Y-41452399D03*
X101297601Y-41452399D03*
X101797601Y-41452399D03*
X102297602Y-41452399D03*
X102797601Y-41452399D03*
D77*
X103500000Y-40750000D03*
X103500000Y-40250001D03*
X103500000Y-39750000D03*
X103500000Y-39250000D03*
X103500000Y-38749999D03*
X103500000Y-38250000D03*
D78*
X102797601Y-37547601D03*
X102297602Y-37547601D03*
X101797601Y-37547601D03*
X101297601Y-37547601D03*
X100797600Y-37547601D03*
X100297601Y-37547601D03*
D79*
X101547601Y-39500000D03*
%TD*%
D17*
%TO.C,C104*%
X130525000Y-105400000D03*
X132075000Y-105400000D03*
%TD*%
D16*
%TO.C,R59*%
X106400000Y-51510000D03*
X106400000Y-50490000D03*
%TD*%
D42*
%TO.C,L18*%
X92500000Y-61675000D03*
X92500000Y-63250000D03*
%TD*%
D16*
%TO.C,R51*%
X109750000Y-134770000D03*
X109750000Y-133750000D03*
%TD*%
D14*
%TO.C,C11*%
X104750000Y-58980000D03*
X104750000Y-58020000D03*
%TD*%
D43*
%TO.C,C112*%
X130300000Y-94875000D03*
X130300000Y-93325000D03*
%TD*%
D23*
%TO.C,L7*%
X106787500Y-56787500D03*
X106787500Y-55212500D03*
%TD*%
D20*
%TO.C,R17*%
X92475360Y-50080200D03*
X92475360Y-51100200D03*
%TD*%
D17*
%TO.C,C109*%
X130425000Y-99000000D03*
X131975000Y-99000000D03*
%TD*%
D14*
%TO.C,C33*%
X98750000Y-56942500D03*
X98750000Y-55982500D03*
%TD*%
D10*
%TO.C,C75*%
X99270000Y-107250000D03*
X100230000Y-107250000D03*
%TD*%
D20*
%TO.C,R16*%
X91000000Y-62452500D03*
X91000000Y-63472500D03*
%TD*%
D16*
%TO.C,R10*%
X98000000Y-76760000D03*
X98000000Y-75740000D03*
%TD*%
D42*
%TO.C,L17*%
X89000000Y-61712500D03*
X89000000Y-63287500D03*
%TD*%
D10*
%TO.C,C1*%
X104770000Y-62250000D03*
X105730000Y-62250000D03*
%TD*%
D14*
%TO.C,C39*%
X91020000Y-61462500D03*
X91020000Y-60502500D03*
%TD*%
D11*
%TO.C,R31*%
X87490000Y-118775000D03*
X88510000Y-118775000D03*
%TD*%
D10*
%TO.C,C29*%
X106307500Y-52500000D03*
X107267500Y-52500000D03*
%TD*%
%TO.C,C92*%
X113290000Y-118500000D03*
X114250000Y-118500000D03*
%TD*%
D66*
%TO.C,J7*%
X133610000Y-115145000D03*
X139390000Y-115145000D03*
D67*
X133300000Y-114070000D03*
X134100000Y-114070000D03*
D68*
X135250000Y-114070000D03*
X136250000Y-114070000D03*
X136750000Y-114070000D03*
X137750000Y-114070000D03*
D67*
X138900000Y-114070000D03*
X139700000Y-114070000D03*
X139700000Y-114070000D03*
X138900000Y-114070000D03*
D68*
X138250000Y-114070000D03*
X137250000Y-114070000D03*
X135750000Y-114070000D03*
X134750000Y-114070000D03*
D67*
X134100000Y-114070000D03*
X133300000Y-114070000D03*
D69*
X132180000Y-114645000D03*
D70*
X132180000Y-118825000D03*
D69*
X140820000Y-114645000D03*
D70*
X140820000Y-118825000D03*
%TD*%
D80*
%TO.C,U1*%
X95445600Y-66195600D03*
X95445600Y-66595599D03*
X95445600Y-66995601D03*
X95445600Y-67395600D03*
X95445600Y-67795599D03*
X95445600Y-68195601D03*
X95445600Y-68595600D03*
X95445600Y-68995600D03*
X95445600Y-69395599D03*
X95445600Y-69795601D03*
X95445600Y-70195600D03*
X95445600Y-70595599D03*
X95445600Y-70995601D03*
X95445600Y-71395600D03*
D81*
X96300000Y-72250000D03*
X96699999Y-72250000D03*
X97100001Y-72250000D03*
X97500000Y-72250000D03*
X97899999Y-72250000D03*
X98300001Y-72250000D03*
X98700000Y-72250000D03*
X99100000Y-72250000D03*
X99499999Y-72250000D03*
X99900001Y-72250000D03*
X100300000Y-72250000D03*
X100699999Y-72250000D03*
X101100001Y-72250000D03*
X101500000Y-72250000D03*
D80*
X102354400Y-71395600D03*
X102354400Y-70995601D03*
X102354400Y-70595599D03*
X102354400Y-70195600D03*
X102354400Y-69795601D03*
X102354400Y-69395599D03*
X102354400Y-68995600D03*
X102354400Y-68595600D03*
X102354400Y-68195601D03*
X102354400Y-67795599D03*
X102354400Y-67395600D03*
X102354400Y-66995601D03*
X102354400Y-66595599D03*
X102354400Y-66195600D03*
D81*
X101500000Y-65341200D03*
X101100001Y-65341200D03*
X100699999Y-65341200D03*
X100300000Y-65341200D03*
X99900001Y-65341200D03*
X99499999Y-65341200D03*
X99100000Y-65341200D03*
X98700000Y-65341200D03*
X98300001Y-65341200D03*
X97899999Y-65341200D03*
X97500000Y-65341200D03*
X97100001Y-65341200D03*
X96699999Y-65341200D03*
X96300000Y-65341200D03*
D82*
X98900000Y-68795600D03*
%TD*%
D20*
%TO.C,R30*%
X85000000Y-121240000D03*
X85000000Y-122260000D03*
%TD*%
D72*
%TO.C,C13*%
X85539411Y-48860589D03*
X84860589Y-49539411D03*
%TD*%
D17*
%TO.C,C106*%
X130525000Y-103800000D03*
X132075000Y-103800000D03*
%TD*%
D23*
%TO.C,L9*%
X108537500Y-52000000D03*
X108537500Y-50425000D03*
%TD*%
D42*
%TO.C,D3*%
X100500000Y-128962500D03*
X100500000Y-130537500D03*
%TD*%
D83*
%TO.C,X3*%
X88750000Y-123750000D03*
X88750000Y-125250000D03*
X90650000Y-125250000D03*
X90650000Y-123750000D03*
%TD*%
D12*
%TO.C,C51*%
X108480000Y-41100000D03*
X107520000Y-41100000D03*
%TD*%
D18*
%TO.C,C59*%
X87750000Y-85520000D03*
X87750000Y-86480000D03*
%TD*%
D16*
%TO.C,R7*%
X94250000Y-76760000D03*
X94250000Y-75740000D03*
%TD*%
D14*
%TO.C,C30*%
X96750000Y-56962500D03*
X96750000Y-56002500D03*
%TD*%
D34*
%TO.C,TP8*%
X113400000Y-41700000D03*
%TD*%
D11*
%TO.C,R13*%
X85952500Y-72750000D03*
X86972500Y-72750000D03*
%TD*%
D14*
%TO.C,C62*%
X113900000Y-95480000D03*
X113900000Y-94520000D03*
%TD*%
D18*
%TO.C,C44*%
X83950000Y-66720000D03*
X83950000Y-67680000D03*
%TD*%
M02*
