%TF.GenerationSoftware,KiCad,Pcbnew,9.0.2*%
%TF.CreationDate,2026-02-11T13:34:11-05:00*%
%TF.ProjectId,COMMS_circuit,434f4d4d-535f-4636-9972-637569742e6b,rev?*%
%TF.SameCoordinates,Original*%
%TF.FileFunction,Plated,1,4,PTH,Mixed*%
%TF.FilePolarity,Positive*%
%FSLAX46Y46*%
G04 Gerber Fmt 4.6, Leading zero omitted, Abs format (unit mm)*
G04 Created by KiCad (PCBNEW 9.0.2) date 2026-02-11 13:34:11*
%MOMM*%
%LPD*%
G01*
G04 APERTURE LIST*
%TA.AperFunction,ViaDrill*%
%ADD10C,0.300000*%
%TD*%
%TA.AperFunction,ComponentDrill*%
%ADD11C,0.350000*%
%TD*%
G04 aperture for slot hole*
%TA.AperFunction,ComponentDrill*%
%ADD12C,0.600000*%
%TD*%
%TA.AperFunction,ComponentDrill*%
%ADD13C,1.000000*%
%TD*%
%TA.AperFunction,ComponentDrill*%
%ADD14C,1.090000*%
%TD*%
G04 APERTURE END LIST*
D10*
X77500000Y-30000000D03*
X77500000Y-32500000D03*
X77500000Y-35000000D03*
X77500000Y-37500000D03*
X77500000Y-40000000D03*
X77500000Y-42500000D03*
X77500000Y-45000000D03*
X77500000Y-47500000D03*
X77500000Y-55000000D03*
X77500000Y-59000000D03*
X77500000Y-65000000D03*
X77500000Y-67500000D03*
X77500000Y-70000000D03*
X77500000Y-72500000D03*
X77500000Y-75000000D03*
X77500000Y-77500000D03*
X77500000Y-80000000D03*
X77500000Y-82500000D03*
X77500000Y-85000000D03*
X77500000Y-87500000D03*
X77500000Y-90000000D03*
X77500000Y-92500000D03*
X77500000Y-95000000D03*
X77500000Y-97500000D03*
X78000000Y-50700000D03*
X78450000Y-48350000D03*
X79750000Y-61250000D03*
X80000000Y-30000000D03*
X80000000Y-32500000D03*
X80000000Y-35000000D03*
X80000000Y-37500000D03*
X80000000Y-40000000D03*
X80000000Y-42500000D03*
X80000000Y-45000000D03*
X80000000Y-47500000D03*
X80000000Y-70000000D03*
X80000000Y-72500000D03*
X80000000Y-75000000D03*
X80700000Y-46900000D03*
X80750000Y-59000000D03*
X80900000Y-67700000D03*
X81000000Y-82500000D03*
X81000000Y-85000000D03*
X81000000Y-92500000D03*
X81000000Y-95000000D03*
X81500000Y-88000000D03*
X81500000Y-97000000D03*
X81750000Y-44250000D03*
X82500000Y-35000000D03*
X82500000Y-37500000D03*
X82500000Y-40000000D03*
X82500000Y-70000000D03*
X82500000Y-72500000D03*
X82500000Y-75000000D03*
X82500000Y-77500000D03*
X82500000Y-80000000D03*
X82500000Y-105000000D03*
X82750000Y-48750000D03*
X83250000Y-43000000D03*
X83250000Y-92750000D03*
X83500000Y-87500000D03*
X83500000Y-95000000D03*
X83982500Y-68382500D03*
X84000000Y-30000000D03*
X84000000Y-32500000D03*
X84000000Y-40000000D03*
X84000000Y-61300000D03*
X84000000Y-63000000D03*
X84150000Y-65200000D03*
X84800000Y-83900000D03*
X85000000Y-75000000D03*
X85000000Y-100000000D03*
X85000000Y-102500000D03*
X85000000Y-105000000D03*
X85000000Y-107500000D03*
X85000000Y-115000000D03*
X85000000Y-125000000D03*
X85000000Y-127500000D03*
X85250000Y-53000000D03*
X85250000Y-73250000D03*
X85250000Y-96000000D03*
X85500000Y-54750000D03*
X85500000Y-69750000D03*
X85500000Y-110000000D03*
X85700000Y-47400000D03*
X86000000Y-87500000D03*
X86000000Y-91000000D03*
X86100000Y-56700000D03*
X86100000Y-59750000D03*
X86250000Y-121500000D03*
X86500000Y-85500000D03*
X86750000Y-62000000D03*
X86750000Y-77750000D03*
X86750000Y-123030000D03*
X86800000Y-51240000D03*
X87200000Y-97300000D03*
X87200000Y-98300000D03*
X87500000Y-35000000D03*
X87500000Y-37500000D03*
X87500000Y-49000000D03*
X87500000Y-66150000D03*
X87500000Y-80000000D03*
X87500000Y-115000000D03*
X87500000Y-127500000D03*
X87750000Y-56750000D03*
X88000000Y-30000000D03*
X88000000Y-32500000D03*
X88000000Y-94500000D03*
X88000000Y-98750000D03*
X88250000Y-102750000D03*
X88650000Y-70050000D03*
X88700000Y-51200000D03*
X89000000Y-42500000D03*
X89000000Y-46600000D03*
X89000000Y-50000000D03*
X89100000Y-83800000D03*
X89100000Y-106800000D03*
X89250000Y-58750000D03*
X89700000Y-44000000D03*
X89750000Y-52500000D03*
X89750000Y-64500000D03*
X89750000Y-82500000D03*
X89750000Y-115250000D03*
X89750000Y-118250000D03*
X90000000Y-35000000D03*
X90000000Y-37500000D03*
X90000000Y-127500000D03*
X90000000Y-130000000D03*
X90000000Y-132500000D03*
X90000000Y-135000000D03*
X90000000Y-137500000D03*
X90000000Y-140000000D03*
X90000000Y-142500000D03*
X90250000Y-62000000D03*
X90350000Y-110550000D03*
X90700000Y-58800000D03*
X91000000Y-68900000D03*
X91250000Y-70500000D03*
X91500000Y-49800000D03*
X91750000Y-52750000D03*
X92000000Y-123500000D03*
X92100000Y-68900000D03*
X92500000Y-30000000D03*
X92500000Y-32500000D03*
X92500000Y-35000000D03*
X92500000Y-37500000D03*
X92500000Y-40000000D03*
X92500000Y-45750000D03*
X92500000Y-85000000D03*
X92500000Y-87500000D03*
X92500000Y-90000000D03*
X92500000Y-92500000D03*
X92500000Y-95000000D03*
X92500000Y-97500000D03*
X92500000Y-100000000D03*
X92500000Y-102500000D03*
X92500000Y-108000000D03*
X92500000Y-110000000D03*
X92500000Y-132500000D03*
X92500000Y-135000000D03*
X92552340Y-41752340D03*
X92600000Y-55900000D03*
X92607565Y-72506052D03*
X93000000Y-119500000D03*
X93091937Y-69100000D03*
X93129759Y-71889481D03*
X93250000Y-65000000D03*
X93250000Y-67000000D03*
X93500000Y-130500000D03*
X93750000Y-47250000D03*
X93750000Y-51250000D03*
X94159200Y-71700000D03*
X94500000Y-65500000D03*
X94500000Y-116500000D03*
X94500000Y-122000000D03*
X94850000Y-57650000D03*
X94991051Y-139247017D03*
X95000000Y-30000000D03*
X95000000Y-32500000D03*
X95000000Y-35000000D03*
X95000000Y-37500000D03*
X95000000Y-42500000D03*
X95000000Y-85000000D03*
X95000000Y-87500000D03*
X95000000Y-90000000D03*
X95000000Y-92500000D03*
X95000000Y-95000000D03*
X95000000Y-97500000D03*
X95000000Y-100000000D03*
X95000000Y-102500000D03*
X95000000Y-142500000D03*
X95250000Y-127750000D03*
X95541726Y-110458274D03*
X95750000Y-44500000D03*
X95750000Y-126000000D03*
X95750000Y-139500000D03*
X96200000Y-47000000D03*
X96250000Y-106250000D03*
X96250000Y-127750000D03*
X96250000Y-134750000D03*
X96250000Y-140750000D03*
X96617194Y-63882806D03*
X96730483Y-108832690D03*
X96750000Y-126000000D03*
X96750000Y-139500000D03*
X97181791Y-136450571D03*
X97250000Y-61250000D03*
X97250000Y-119750000D03*
X97250000Y-127750000D03*
X97500000Y-30000000D03*
X97500000Y-32500000D03*
X97500000Y-35000000D03*
X97500000Y-42500000D03*
X97500000Y-59250000D03*
X97500000Y-85000000D03*
X97500000Y-87500000D03*
X97500000Y-90000000D03*
X97500000Y-92500000D03*
X97500000Y-95000000D03*
X97500000Y-97500000D03*
X97500000Y-100000000D03*
X97500000Y-102500000D03*
X97500000Y-142500000D03*
X97508949Y-139247017D03*
X97770000Y-56500000D03*
X98400000Y-47700000D03*
X98600000Y-46100000D03*
X98750000Y-80250000D03*
X98750000Y-129250000D03*
X98800000Y-130650000D03*
X99000000Y-61000000D03*
X99000000Y-111000000D03*
X99200000Y-42400000D03*
X99250000Y-109500000D03*
X99250000Y-134750000D03*
X99300000Y-35700000D03*
X99500000Y-114500000D03*
X99750000Y-62750000D03*
X99750000Y-79000000D03*
X99750000Y-118000000D03*
X100000000Y-30000000D03*
X100000000Y-32500000D03*
X100000000Y-35000000D03*
X100000000Y-85000000D03*
X100000000Y-87500000D03*
X100000000Y-90000000D03*
X100000000Y-92500000D03*
X100000000Y-95000000D03*
X100000000Y-97500000D03*
X100000000Y-100000000D03*
X100000000Y-102500000D03*
X100250000Y-58750000D03*
X100250000Y-77500000D03*
X100500000Y-44000000D03*
X100750000Y-115250000D03*
X100750000Y-120750000D03*
X101000000Y-36400000D03*
X101000000Y-122500000D03*
X101700000Y-35900000D03*
X101797601Y-42952399D03*
X101900000Y-52650000D03*
X102000000Y-76500000D03*
X102000000Y-81250000D03*
X102000000Y-105750000D03*
X102000000Y-131000000D03*
X102250000Y-78000000D03*
X102500000Y-56750000D03*
X102500000Y-85000000D03*
X102500000Y-87500000D03*
X102500000Y-90000000D03*
X102500000Y-92500000D03*
X102500000Y-95000000D03*
X102500000Y-97500000D03*
X102500000Y-100000000D03*
X102500000Y-102500000D03*
X102500000Y-113500000D03*
X102500000Y-135000000D03*
X102500000Y-137500000D03*
X102500000Y-140000000D03*
X102500000Y-142500000D03*
X102500003Y-35900000D03*
X102597604Y-42452399D03*
X103100000Y-36600000D03*
X103250000Y-60750000D03*
X103500000Y-65650000D03*
X103500000Y-132500000D03*
X103640800Y-66494380D03*
X103750000Y-63500000D03*
X104000000Y-43700000D03*
X104250000Y-126500000D03*
X104500000Y-46600000D03*
X104500000Y-68550000D03*
X104700000Y-41800000D03*
X104750000Y-111000000D03*
X104750000Y-114500000D03*
X104800000Y-63900000D03*
X105000000Y-30000000D03*
X105000000Y-32500000D03*
X105000000Y-85000000D03*
X105000000Y-87500000D03*
X105000000Y-90000000D03*
X105000000Y-92500000D03*
X105000000Y-95000000D03*
X105000000Y-97500000D03*
X105000000Y-100000000D03*
X105000000Y-102500000D03*
X105000000Y-135000000D03*
X105000000Y-137500000D03*
X105000000Y-140000000D03*
X105000000Y-142500000D03*
X105100000Y-64800000D03*
X105309776Y-105351461D03*
X105850000Y-133153959D03*
X105890083Y-106000000D03*
X106000000Y-122000000D03*
X106100000Y-63400000D03*
X106200000Y-49000000D03*
X106681861Y-106114400D03*
X106750000Y-61000000D03*
X107000000Y-71500000D03*
X107100000Y-105432371D03*
X107250000Y-118500000D03*
X107500000Y-85000000D03*
X107500000Y-87500000D03*
X107500000Y-90000000D03*
X107500000Y-92500000D03*
X107500000Y-95000000D03*
X107500000Y-97500000D03*
X107500000Y-100000000D03*
X107500000Y-102500000D03*
X107500000Y-137500000D03*
X107500000Y-142500000D03*
X108250000Y-125750000D03*
X108258949Y-102752983D03*
X108300000Y-63900000D03*
X108300000Y-79200000D03*
X108400000Y-43800000D03*
X108400000Y-76800000D03*
X108500000Y-74000000D03*
X108500000Y-105214544D03*
X108500000Y-116000000D03*
X109000000Y-119000000D03*
X109000000Y-133000000D03*
X109250000Y-70250000D03*
X109300000Y-73500000D03*
X109400000Y-77300000D03*
X109440000Y-108000000D03*
X109500000Y-92800000D03*
X109500000Y-111250000D03*
X109600000Y-57250000D03*
X109600000Y-58750000D03*
X109650000Y-112750000D03*
X109750000Y-49500000D03*
X110000000Y-30000000D03*
X110000000Y-32500000D03*
X110000000Y-35000000D03*
X110000000Y-55750000D03*
X110000000Y-142500000D03*
X110400000Y-74400000D03*
X110500000Y-121250000D03*
X110500000Y-124250000D03*
X110600000Y-76600000D03*
X110900000Y-36800000D03*
X110900000Y-42700000D03*
X111000000Y-47750000D03*
X111100000Y-81600000D03*
X111500000Y-80000000D03*
X111500000Y-107500000D03*
X111500000Y-111250000D03*
X111750000Y-69550000D03*
X112000000Y-124000000D03*
X112200000Y-90100000D03*
X112250000Y-119250000D03*
X112250000Y-133750000D03*
X112500000Y-35000000D03*
X112500000Y-37500000D03*
X112500000Y-40000000D03*
X112500000Y-127500000D03*
X112500000Y-137500000D03*
X112500000Y-140000000D03*
X112500000Y-142500000D03*
X112700000Y-111200000D03*
X112800000Y-120900000D03*
X113000000Y-102175000D03*
X113400000Y-72800000D03*
X113469669Y-108982169D03*
X113625000Y-113625000D03*
X114000000Y-97500000D03*
X114250000Y-92500000D03*
X114250000Y-116750000D03*
X114300000Y-93700000D03*
X114400000Y-102400000D03*
X114700735Y-90999265D03*
X115000000Y-30000000D03*
X115000000Y-32500000D03*
X115000000Y-35000000D03*
X115000000Y-37500000D03*
X115000000Y-40000000D03*
X115000000Y-45000000D03*
X115000000Y-47500000D03*
X115000000Y-50000000D03*
X115000000Y-52500000D03*
X115000000Y-55000000D03*
X115000000Y-57500000D03*
X115000000Y-61500000D03*
X115000000Y-63250000D03*
X115000000Y-65000000D03*
X115000000Y-67500000D03*
X115000000Y-70000000D03*
X115000000Y-120000000D03*
X115000000Y-122500000D03*
X115000000Y-125000000D03*
X115000000Y-127500000D03*
X115000000Y-130000000D03*
X115000000Y-132500000D03*
X115000000Y-135000000D03*
X115000000Y-137500000D03*
X115000000Y-140000000D03*
X115000000Y-142500000D03*
X115400000Y-89600000D03*
X115500000Y-72000000D03*
X115500000Y-74500000D03*
X115500000Y-77000000D03*
X115500000Y-79500000D03*
X115500000Y-82000000D03*
X115500000Y-84500000D03*
X115500000Y-87000000D03*
X115500000Y-107762500D03*
X115750000Y-59250000D03*
X117250000Y-111750000D03*
X117250000Y-114250000D03*
X117900000Y-99700000D03*
X118000000Y-91000000D03*
X118000000Y-100700000D03*
X119211176Y-105155489D03*
X119250000Y-103784456D03*
X119300000Y-101200000D03*
X119600000Y-120100000D03*
X119669802Y-104500000D03*
X119750000Y-95250000D03*
X120000000Y-91000000D03*
X120424265Y-105524265D03*
X120495230Y-103500000D03*
X121300000Y-112400000D03*
X121758902Y-99707561D03*
X122350000Y-105346914D03*
X122600000Y-107500000D03*
X122700000Y-106100000D03*
X123600000Y-108000000D03*
X125000000Y-91000000D03*
X125000000Y-94000000D03*
X125200000Y-101100000D03*
X125424265Y-107875735D03*
X126247774Y-103000000D03*
X126400000Y-110300000D03*
X126500000Y-114000000D03*
X127100000Y-112700000D03*
X127700000Y-110300000D03*
X127700000Y-118200000D03*
X128000000Y-120000000D03*
X128600000Y-95900000D03*
X128800000Y-102400000D03*
X129000000Y-91000000D03*
X129000000Y-110000000D03*
X129200000Y-99700000D03*
X129600000Y-104600000D03*
X131000000Y-100000000D03*
X133000000Y-94000000D03*
X133000000Y-96000000D03*
X133000000Y-110750000D03*
X133250000Y-104750000D03*
X133750000Y-102500000D03*
X134750000Y-109250000D03*
X136400000Y-112500000D03*
X136400000Y-115600000D03*
X136500000Y-106000000D03*
X137000000Y-101000000D03*
X139000000Y-107000000D03*
X140000000Y-102000000D03*
X140000000Y-105000000D03*
X142000000Y-111000000D03*
D11*
%TO.C,U9*%
X123575000Y-104225000D03*
X123575000Y-105500000D03*
X123575000Y-106775000D03*
X124850000Y-104225000D03*
X124850000Y-105500000D03*
X124850000Y-106775000D03*
X126125000Y-104225000D03*
X126125000Y-105500000D03*
X126125000Y-106775000D03*
D12*
%TO.C,J3*%
X91930000Y-139120000D02*
X91930000Y-138020000D01*
X91930000Y-143150000D02*
X91930000Y-142350000D01*
X100570000Y-139120000D02*
X100570000Y-138020000D01*
X100570000Y-143150000D02*
X100570000Y-142350000D01*
%TO.C,J7*%
X132180000Y-115195000D02*
X132180000Y-114095000D01*
X132180000Y-119225000D02*
X132180000Y-118425000D01*
X140820000Y-115195000D02*
X140820000Y-114095000D01*
X140820000Y-119225000D02*
X140820000Y-118425000D01*
D13*
%TO.C,J5*%
X79500000Y-77340000D03*
X79500000Y-79880000D03*
X79500000Y-82420000D03*
X79500000Y-84960000D03*
X79500000Y-87500000D03*
X79500000Y-90040000D03*
X79500000Y-92580000D03*
X79500000Y-95120000D03*
X79500000Y-97660000D03*
X79500000Y-100200000D03*
X79500000Y-102740000D03*
X79500000Y-105280000D03*
%TO.C,TP7*%
X106300000Y-43500000D03*
%TO.C,TP9*%
X110000000Y-45600000D03*
%TO.C,TP8*%
X113400000Y-41700000D03*
%TO.C,TP1*%
X117600000Y-119100000D03*
%TO.C,TP6*%
X118600000Y-93200000D03*
%TO.C,TP2*%
X134700000Y-97400000D03*
%TO.C,TP3*%
X140700000Y-109100000D03*
D14*
%TO.C,J4*%
X107960000Y-140500000D03*
X110500000Y-140500000D03*
M02*
